HIERARCHY
ROOT Hips
{
	OFFSET 0.00 0.00 0.00
	CHANNELS 6 Xposition Yposition Zposition Xrotation Yrotation Zrotation
	JOINT Spine
	{
		OFFSET 0.00000 1.70439 2.55658
		CHANNELS 3 Xrotation Yrotation Zrotation
		JOINT Spine1
		{
			OFFSET 0.00000 0.59193 3.35699
			CHANNELS 3 Xrotation Yrotation Zrotation
			JOINT Spine2
			{
				OFFSET 0.00000 0.29710 3.39581
				CHANNELS 3 Xrotation Yrotation Zrotation
				JOINT Spine3
				{
					OFFSET 0.00000 0.00000 3.40878
					CHANNELS 3 Xrotation Yrotation Zrotation
					JOINT Neck
					{
						OFFSET 0.00000 -1.27828 8.94804
						CHANNELS 3 Xrotation Yrotation Zrotation
						JOINT Head
						{
							OFFSET 0.00000 -0.81390 4.61586
							CHANNELS 3 Xrotation Yrotation Zrotation
							End Site
							{
								OFFSET 0.00000 0.00001 5.51796
							}
						}
					}
					JOINT RightShoulder
					{
						OFFSET -1.18875 -1.98124 6.41925
						CHANNELS 3 Xrotation Yrotation Zrotation
						JOINT RightArm
						{
							OFFSET -5.90412 0.00000 0.00000
							CHANNELS 3 Xrotation Yrotation Zrotation
							JOINT RightForeArm
							{
								OFFSET -11.94674 0.00000 0.00000
								CHANNELS 3 Xrotation Yrotation Zrotation
								JOINT RightHand
								{
									OFFSET -10.17720 0.00000 0.00000
									CHANNELS 3 Xrotation Yrotation Zrotation
									JOINT RightHandEnd
									{
										OFFSET -2.84518 0.00000 0.00000
										CHANNELS 3 Xrotation Yrotation Zrotation
										End Site
										{
											OFFSET -2.84518 0.00000 0.00000
										}
									}
									JOINT RightHandThumb1
									{
										OFFSET -1.13807 -1.89679 -0.75871
										CHANNELS 3 Yrotation Xrotation Zrotation
										End Site
										{
											OFFSET -2.74823 -0.73639 0.00000
										}
									}
								}
							}
						}
					}
					JOINT LeftShoulder
					{
						OFFSET 1.18875 -1.98124 6.41925
						CHANNELS 3 Xrotation Yrotation Zrotation
						JOINT LeftArm
						{
							OFFSET 5.90412 0.00000 0.00000
							CHANNELS 3 Xrotation Yrotation Zrotation
							JOINT LeftForeArm
							{
								OFFSET 11.94674 0.00000 0.00000
								CHANNELS 3 Xrotation Yrotation Zrotation
								JOINT LeftHand
								{
									OFFSET 10.17720 0.00000 0.00000
									CHANNELS 3 Xrotation Yrotation Zrotation
									JOINT LeftHandEnd
									{
										OFFSET 2.84518 0.00000 0.00000
										CHANNELS 3 Xrotation Yrotation Zrotation
										End Site
										{
											OFFSET 2.84518 0.00000 0.00000
										}
									}
									JOINT LeftHandThumb1
									{
										OFFSET 1.13807 -1.89679 -0.75871
										CHANNELS 3 Yrotation Xrotation Zrotation
										End Site
										{
											OFFSET 2.74823 -0.73639 0.00000
										}
									}
								}
							}
						}
					}
				}
			}
		}
	}
	JOINT RightUpLeg
	{
		OFFSET -3.52662 0.00000 -1.03025
		CHANNELS 3 Xrotation Yrotation Zrotation
		JOINT RightLeg
		{
			OFFSET 0.00001 0.00000 -17.80159
			CHANNELS 3 Xrotation Yrotation Zrotation
			JOINT RightFoot
			{
				OFFSET 0.00001 0.00000 -16.85992
				CHANNELS 3 Xrotation Yrotation Zrotation
				JOINT RightToeBase
				{
					OFFSET 0.00000 -5.42953 -1.97619
					CHANNELS 3 Xrotation Yrotation Zrotation
					End Site
					{
						OFFSET 0.00000 -2.85300 -0.00000
					}
				}
			}
		}
	}
	JOINT LeftUpLeg
	{
		OFFSET 3.52662 0.00000 -1.03025
		CHANNELS 3 Xrotation Yrotation Zrotation
		JOINT LeftLeg
		{
			OFFSET 0.00001 0.00000 -17.80159
			CHANNELS 3 Xrotation Yrotation Zrotation
			JOINT LeftFoot
			{
				OFFSET 0.00001 0.00000 -16.85992
				CHANNELS 3 Xrotation Yrotation Zrotation
				JOINT LeftToeBase
				{
					OFFSET 0.00000 -5.42953 -1.97619
					CHANNELS 3 Xrotation Yrotation Zrotation
					End Site
					{
						OFFSET 0.00000 -2.85300 -0.00000
					}
				}
			}
		}
	}
}
MOTION
Frames: 12
Frame Time: 0.008342
 1.0280 -53.9905 37.8269 -0.2747 3.2798 -176.5484 2.4866 1.6892 -0.5212 1.3758 -0.3541 -0.1013 -1.5892 -1.2302 0.0406 -1.0191 0.3244 0.2408 4.3765 0.0809 -0.6020 -3.6352 1.0216 0.6852 -3.3455 16.1057 0.3908 -3.8943 6.2718 -1.7693 0.0000 0.0000 10.4650 -1.3566 23.3932 -4.5181 0.0000 0.0000 0.0000 0.0000 -0.0000 0.0000 -6.3524 -12.9022 -4.9023 -2.8966 -0.6288 2.2637 -0.0000 -0.0000 -15.8082 -0.7184 -24.2424 4.9741 -0.0000 -0.0000 -0.0000 0.0000 0.0000 0.0000 1.2125 12.0482 -33.6700 15.1777 0.0000 0.0000 -12.8954 -8.1213 -0.5745 3.5469 0.0000 0.0000 4.1965 -3.1992 9.5162 11.9878 0.0000 0.0000 -8.3085 8.1680 8.2080 -6.1039 0.0000 -0.0000
 1.0227 -53.9842 37.8292 -0.2795 3.2663 -176.5688 2.4755 1.6783 -0.5142 1.3706 -0.3571 -0.0986 -1.5820 -1.2110 0.0732 -1.0186 0.3336 0.2393 4.3472 0.0742 -0.6007 -3.6493 1.0274 0.6752 -3.3935 16.1000 0.4338 -3.9270 6.3191 -1.7448 0.0000 0.0000 10.5042 -1.2325 23.4778 -4.5940 -0.0000 0.0000 -0.0000 0.0000 0.0000 0.0000 -6.3483 -12.8682 -4.9080 -2.9636 -0.6124 2.2348 -0.0000 -0.0000 -15.8552 -0.7307 -24.2765 4.9805 0.0000 0.0000 0.0000 0.0000 0.0000 0.0000 1.2808 12.0407 -33.7795 15.0455 0.0000 0.0000 -12.7855 -8.2439 -0.4194 3.5240 0.0000 0.0000 4.2029 -3.2087 9.5386 11.9892 0.0000 0.0000 -8.2981 8.1790 8.1809 -6.1187 0.0000 -0.0000
 1.0165 -53.9760 37.8320 -0.2836 3.2448 -176.6022 2.4627 1.6635 -0.5050 1.3677 -0.3646 -0.0969 -1.5747 -1.1847 0.1197 -1.0180 0.3437 0.2384 4.3063 0.0653 -0.5970 -3.6667 1.0326 0.6647 -3.4534 16.0938 0.4903 -3.9710 6.3758 -1.7083 0.0000 0.0000 10.5541 -1.0785 23.5813 -4.6857 0.0000 0.0000 0.0000 -0.0000 0.0000 0.0000 -6.3388 -12.8257 -4.9142 -3.0448 -0.5883 2.2009 -0.0000 -0.0000 -15.9140 -0.7431 -24.3184 4.9885 0.0000 -0.0000 -0.0000 0.0000 0.0000 0.0000 1.3613 12.0251 -33.8945 14.8860 0.0000 0.0000 -12.6495 -8.3907 -0.2408 3.4946 0.0000 0.0000 4.2127 -3.2238 9.5638 11.9933 0.0000 0.0000 -8.2900 8.1896 8.1592 -6.1356 0.0000 -0.0000
 1.0096 -53.9664 37.8352 -0.2901 3.2173 -176.6492 2.4484 1.6469 -0.4938 1.3631 -0.3743 -0.0944 -1.5658 -1.1551 0.1772 -1.0168 0.3552 0.2386 4.2530 0.0533 -0.5919 -3.6876 1.0379 0.6559 -3.5239 16.0877 0.5616 -4.0251 6.4393 -1.6616 0.0000 0.0000 10.6158 -0.8986 23.6959 -4.7913 -0.0000 0.0000 -0.0000 -0.0000 -0.0000 -0.0000 -6.3260 -12.7739 -4.9197 -3.1318 -0.5575 2.1614 -0.0000 -0.0000 -15.9816 -0.7584 -24.3686 4.9974 0.0000 -0.0000 -0.0000 -0.0000 -0.0000 0.0000 1.4453 12.0035 -34.0026 14.7080 0.0000 0.0000 -12.4939 -8.5539 -0.0511 3.4604 0.0000 0.0000 4.2221 -3.2417 9.5871 12.0006 0.0000 0.0000 -8.2852 8.1972 8.1495 -6.1547 0.0000 -0.0000
 1.0024 -53.9558 37.8385 -0.3006 3.1841 -176.7097 2.4325 1.6292 -0.4818 1.3564 -0.3841 -0.0906 -1.5547 -1.1248 0.2431 -1.0155 0.3668 0.2402 4.1873 0.0393 -0.5835 -3.7121 1.0426 0.6497 -3.6009 16.0821 0.6468 -4.0863 6.5074 -1.6037 0.0000 0.0000 10.6864 -0.7062 23.8142 -4.9009 -0.0000 0.0000 -0.0000 -0.0000 -0.0000 0.0000 -6.3084 -12.7140 -4.9225 -3.2220 -0.5201 2.1186 -0.0000 -0.0000 -16.0559 -0.7746 -24.4250 5.0048 0.0000 -0.0000 -0.0000 0.0000 0.0000 0.0000 1.5253 11.9755 -34.0919 14.5207 0.0000 0.0000 -12.3263 -8.7236 0.1358 3.4225 0.0000 0.0000 4.2284 -3.2616 9.6037 12.0122 0.0000 0.0000 -8.2854 8.1990 8.1581 -6.1749 0.0000 -0.0000
 0.9953 -53.9446 37.8417 -0.3149 3.1458 -176.7817 2.4157 1.6113 -0.4690 1.3492 -0.3946 -0.0865 -1.5430 -1.0943 0.3150 -1.0138 0.3782 0.2429 4.1098 0.0226 -0.5722 -3.7397 1.0467 0.6471 -3.6799 16.0779 0.7439 -4.1529 6.5753 -1.5354 0.0000 0.0000 10.7641 -0.5145 23.9283 -5.0037 0.0000 -0.0000 0.0000 -0.0000 -0.0000 0.0000 -6.2872 -12.6479 -4.9222 -3.3096 -0.4771 2.0739 -0.0000 -0.0000 -16.1343 -0.7939 -24.4837 5.0090 -0.0000 -0.0000 0.0000 -0.0000 -0.0000 0.0000 1.5963 11.9409 -34.1526 14.3339 0.0000 0.0000 -12.1556 -8.8890 0.3064 3.3826 0.0000 0.0000 4.2306 -3.2831 9.6102 12.0285 0.0000 0.0000 -8.2919 8.1928 8.1882 -6.1956 0.0000 -0.0000
 0.9887 -53.9334 37.8448 -0.3335 3.1028 -176.8624 2.3982 1.5941 -0.4566 1.3427 -0.4055 -0.0829 -1.5310 -1.0648 0.3901 -1.0121 0.3881 0.2465 4.0212 0.0035 -0.5580 -3.7706 1.0494 0.6489 -3.7548 16.0757 0.8494 -4.2211 6.6394 -1.4568 0.0000 0.0000 10.8453 -0.3347 24.0299 -5.0928 -0.0000 -0.0000 -0.0000 0.0000 -0.0000 0.0000 -6.2642 -12.5778 -4.9184 -3.3867 -0.4296 2.0298 -0.0000 -0.0000 -16.2130 -0.8144 -24.5428 5.0100 0.0000 0.0000 -0.0000 -0.0000 -0.0000 0.0000 1.6527 11.8991 -34.1760 14.1569 0.0000 0.0000 -11.9913 -9.0390 0.4468 3.3426 0.0000 0.0000 4.2268 -3.3063 9.6032 12.0501 0.0000 0.0000 -8.3060 8.1764 8.2424 -6.2141 0.0000 -0.0000
 0.9832 -53.9226 37.8475 -0.3566 3.0561 -176.9480 2.3813 1.5786 -0.4453 1.3364 -0.4154 -0.0792 -1.5185 -1.0386 0.4630 -1.0102 0.3959 0.2511 3.9227 -0.0178 -0.5421 -3.8046 1.0510 0.6566 -3.8213 16.0756 0.9609 -4.2863 6.6967 -1.3705 0.0000 0.0000 10.9270 -0.1816 24.1119 -5.1578 0.0000 -0.0000 0.0000 0.0000 -0.0000 0.0000 -6.2395 -12.5059 -4.9106 -3.4506 -0.3792 1.9879 -0.0000 -0.0000 -16.2884 -0.8393 -24.5997 5.0027 0.0000 -0.0000 -0.0000 -0.0000 -0.0000 0.0000 1.6899 11.8501 -34.1553 13.9987 0.0000 0.0000 -11.8431 -9.1633 0.5446 3.3037 0.0000 0.0000 4.2156 -3.3309 9.5798 12.0770 0.0000 0.0000 -8.3282 8.1486 8.3214 -6.2296 0.0000 -0.0000
 0.9790 -53.9128 37.8496 -0.3844 3.0075 -177.0338 2.3649 1.5661 -0.4361 1.3315 -0.4231 -0.0765 -1.5059 -1.0169 0.5306 -1.0086 0.4014 0.2563 3.8162 -0.0415 -0.5236 -3.8418 1.0514 0.6681 -3.8731 16.0776 1.0735 -4.3475 6.7441 -1.2771 0.0000 0.0000 11.0058 -0.0654 24.1718 -5.1904 0.0000 0.0000 0.0000 -0.0000 0.0000 -0.0000 -6.2154 -12.4347 -4.8994 -3.4964 -0.3272 1.9508 -0.0000 -0.0000 -16.3584 -0.8674 -24.6515 4.9880 -0.0000 0.0000 -0.0000 0.0000 -0.0000 0.0000 1.7049 11.7950 -34.0877 13.8664 0.0000 0.0000 -11.7195 -9.2537 0.5906 3.2675 0.0000 0.0000 4.1956 -3.3556 9.5373 12.1085 0.0000 0.0000 -8.3582 8.1085 8.4250 -6.2403 0.0000 -0.0000
 0.9766 -53.9043 37.8512 -0.4165 2.9574 -177.1152 2.3508 1.5572 -0.4292 1.3276 -0.4287 -0.0745 -1.4930 -1.0009 0.5882 -1.0069 0.4042 0.2616 3.7030 -0.0674 -0.5049 -3.8824 1.0504 0.6852 -3.9087 16.0820 1.1856 -4.4000 6.7794 -1.1811 0.0000 0.0000 11.0808 0.0075 24.2071 -5.1888 -0.0000 -0.0000 -0.0000 -0.0000 -0.0000 -0.0000 -6.1932 -12.3667 -4.8847 -3.5220 -0.2753 1.9184 -0.0000 -0.0000 -16.4197 -0.8990 -24.6965 4.9645 -0.0000 0.0000 -0.0000 0.0000 0.0000 0.0000 1.6968 11.7336 -33.9755 13.7646 0.0000 0.0000 -11.6261 -9.3047 0.5813 3.2353 0.0000 0.0000 4.1663 -3.3818 9.4776 12.1446 0.0000 0.0000 -8.3958 8.0570 8.5476 -6.2441 0.0000 -0.0000
 0.9762 -53.8978 37.8520 -0.4593 2.9059 -177.1870 2.3319 1.5514 -0.4248 1.3255 -0.4327 -0.0731 -1.4787 -0.9880 0.6323 -1.0055 0.4039 0.2665 3.5851 -0.0964 -0.4869 -3.9282 1.0487 0.7061 -3.9268 16.0852 1.2940 -4.4407 6.8041 -1.0848 0.0000 0.0000 11.1500 0.0334 24.2203 -5.1501 0.0000 -0.0000 -0.0000 -0.0000 -0.0000 0.0000 -6.1747 -12.3029 -4.8680 -3.5269 -0.2262 1.8919 -0.0000 -0.0000 -16.4709 -0.9353 -24.7331 4.9312 0.0000 0.0000 -0.0000 0.0000 0.0000 0.0000 1.6588 11.6651 -33.8181 13.6952 0.0000 0.0000 -11.5667 -9.3126 0.5112 3.2077 0.0000 0.0000 4.1190 -3.4106 9.4006 12.1866 0.0000 0.0000 -8.4409 7.9953 8.6855 -6.2395 0.0000 -0.0000
 0.9778 -53.8927 37.8523 -0.4983 2.8587 -177.2456 2.3243 1.5527 -0.4241 1.3240 -0.4293 -0.0727 -1.4640 -0.9869 0.6608 -1.0044 0.4025 0.2719 3.4638 -0.1267 -0.4705 -3.9770 1.0456 0.7294 -3.9249 16.0931 1.3934 -4.4703 6.8128 -0.9869 0.0000 0.0000 11.2104 0.0142 24.2137 -5.0773 0.0000 0.0000 0.0000 0.0000 -0.0000 0.0000 -6.1594 -12.2469 -4.8517 -3.5147 -0.1774 1.8732 -0.0000 -0.0000 -16.5120 -0.9741 -24.7595 4.8891 0.0000 0.0000 0.0000 -0.0000 0.0000 -0.0000 1.6095 11.5959 -33.6347 13.6574 0.0000 0.0000 -11.5414 -9.2805 0.3953 3.1856 0.0000 0.0000 4.0726 -3.4369 9.3082 12.2263 0.0000 0.0000 -8.4887 7.9258 8.8327 -6.2259 0.0000 -0.0000
